<mxfile host="app.diagrams.net" modified="2023-04-12T08:20:08.254Z" agent="Mozilla/5.0 (Windows NT 10.0; Win64; x64; rv:109.0) Gecko/20100101 Firefox/111.0" etag="bPpc0NmOi0s842CJY4XH" version="21.1.6" type="github">
  <diagram name="Seite-1" id="w1WZEUKmQr7Qaw6sb43z">
    <mxGraphModel dx="1434" dy="805" grid="1" gridSize="10" guides="1" tooltips="1" connect="1" arrows="1" fold="1" page="1" pageScale="1" pageWidth="1169" pageHeight="827" math="0" shadow="0">
      <root>
        <mxCell id="0" />
        <mxCell id="1" style="locked=1;" parent="0" />
        <mxCell id="vFvJSeEN_IzGysMKZJrd-1" value="" style="rounded=0;whiteSpace=wrap;html=1;fillColor=none;" vertex="1" parent="1">
          <mxGeometry x="40" y="40" width="1090" height="760" as="geometry" />
        </mxCell>
        <mxCell id="vFvJSeEN_IzGysMKZJrd-2" value="" style="rounded=0;whiteSpace=wrap;html=1;fillColor=none;" vertex="1" parent="1">
          <mxGeometry x="840" y="680" width="290" height="120" as="geometry" />
        </mxCell>
        <mxCell id="vFvJSeEN_IzGysMKZJrd-3" value="&lt;div&gt;&lt;h1&gt;Title&lt;/h1&gt;&lt;/div&gt;" style="text;html=1;strokeColor=none;fillColor=none;align=center;verticalAlign=middle;whiteSpace=wrap;rounded=0;" vertex="1" parent="1">
          <mxGeometry x="840" y="680" width="290" height="30" as="geometry" />
        </mxCell>
        <mxCell id="vFvJSeEN_IzGysMKZJrd-4" value="Unbenannte Ebene" parent="0" />
        <mxCell id="vFvJSeEN_IzGysMKZJrd-5" value="" style="rounded=0;whiteSpace=wrap;html=1;fillColor=#f5f5f5;fontColor=#333333;strokeColor=#666666;" vertex="1" parent="vFvJSeEN_IzGysMKZJrd-4">
          <mxGeometry x="480" y="120" width="280" height="40" as="geometry" />
        </mxCell>
        <mxCell id="vFvJSeEN_IzGysMKZJrd-6" value="" style="shape=flexArrow;endArrow=classic;html=1;rounded=0;fillColor=#d5e8d4;strokeColor=#82b366;" edge="1" parent="vFvJSeEN_IzGysMKZJrd-4">
          <mxGeometry width="50" height="50" relative="1" as="geometry">
            <mxPoint x="470" y="190" as="sourcePoint" />
            <mxPoint x="520" y="140" as="targetPoint" />
          </mxGeometry>
        </mxCell>
        <mxCell id="vFvJSeEN_IzGysMKZJrd-7" value="" style="rounded=0;whiteSpace=wrap;html=1;" vertex="1" parent="vFvJSeEN_IzGysMKZJrd-4">
          <mxGeometry x="560" y="130" width="20" height="20" as="geometry" />
        </mxCell>
      </root>
    </mxGraphModel>
  </diagram>
</mxfile>
